# xmcd
#
# Track frame offsets:
#	150
#	18196
#	42787
#	60901
#	77981
#	102339
#	122569
#	141837
#	161647
#	179415
#	194841
#	216317
#	222296
#	242982
#	260973
#	280296
#	296782
#	314546
#
# Disc length: 4462 seconds
#
# Revision: 1
# Processed by: cddbd v1.5.2PL0 Copyright (c) Steve Scherf et al.
# Submitted via: audiograbber 1.83.01
#
DISCID=21116c12
DTITLE=Will.I.Am - Songs About Girls
DYEAR=2007
DGENRE=R&B
TTITLE0=Over
TTITLE1=Heartbreaker
TTITLE2=I Got It From My Mama
TTITLE3=She´s A Star
TTITLE4=Get Your Money
TTITLE5=The Donque Song
TTITLE6=Impatient
TTITLE7=One More Chance
TTITLE8=Invisible
TTITLE9=Fantastic
TTITLE10=Fly Girl
TTITLE11=Dynamite Interlude
TTITLE12=Ain´t It Pretty
TTITLE13=Make It Funky
TTITLE14=S.O.S. (Mother Nature)
TTITLE15=Mamma Mia
TTITLE16=Spending Money
TTITLE17=Damn Damn Damn
EXTD=
EXTT0=
EXTT1=
EXTT2=
EXTT3=
EXTT4=
EXTT5=
EXTT6=
EXTT7=
EXTT8=
EXTT9=
EXTT10=
EXTT11=
EXTT12=
EXTT13=
EXTT14=
EXTT15=
EXTT16=
EXTT17=
PLAYORDER=
